/* XPM */
static char * close_inactive_xpm[] = {
"36 48 6 1",
"       c None",
".      c #000000 s inactive_border_color",
"+      c #FFFFFF s inactive_hilight_2",
"@      c #D8D8D8 s inactive_color_2",
"#      c #B2B2B2 s inactive_shadow_2",
"o      c #000000 s buttons_color",
"                                    ",
"                                    ",
"                                    ",
"                                    ",
"                                    ",
"                                    ",
"                                    ",
"                                    ",
"                                    ",
"                                    ",
"                                    ",
"                                    ",
"    ++++++++++++++++++++++++++++++..",
"    ++++++++++++++++++++++++++++++..",
"    ++@@@@@@@@@@@@@@@@@@@@@@@@@@##..",
"    ++@@@@@@@@@@@@@@@@@@@@@@@@@@##..",
"    ++@@@@@@@@@@@@@@@@@@@@@@@@@@##..",
"    ++@@@@@@@@@@@@@@@@@@@@@@@@@@##..",
"    ++@@@@@@oooo@@@@@@@@oooo@@@@##..",
"    ++@@@@@@oooo@@@@@@@@oooo@@@@##..",
"    ++@@@@@@@@oooo@@@@oooo@@@@@@##..",
"    ++@@@@@@@@oooo@@@@oooo@@@@@@##..",
"    ++@@@@@@@@@@oooooooo@@@@@@@@##..",
"    ++@@@@@@@@@@oooooooo@@@@@@@@##..",
"    ++@@@@@@@@@@@@oooo@@@@@@@@@@##..",
"    ++@@@@@@@@@@@@oooo@@@@@@@@@@##..",
"    ++@@@@@@@@@@oooooooo@@@@@@@@##..",
"    ++@@@@@@@@@@oooooooo@@@@@@@@##..",
"    ++@@@@@@@@oooo@@@@oooo@@@@@@##..",
"    ++@@@@@@@@oooo@@@@oooo@@@@@@##..",
"    ++@@@@@@oooo@@@@@@@@oooo@@@@##..",
"    ++@@@@@@oooo@@@@@@@@oooo@@@@##..",
"    ++@@@@@@@@@@@@@@@@@@@@@@@@@@##..",
"    ++@@@@@@@@@@@@@@@@@@@@@@@@@@##..",
"    ++@@@@@@@@@@@@@@@@@@@@@@@@@@##..",
"    ++@@@@@@@@@@@@@@@@@@@@@@@@@@##..",
"    ++############################..",
"    ++############################..",
"    ................................",
"    ................................",
"                                    ",
"                                    ",
"                                    ",
"                                    ",
"                                    ",
"                                    ",
"                                    ",
"                                    "};
