/* XPM */
static char * maximize_toggled_inactive_xpm[] = {
"16 24 6 1",
"       c None",
".      c #000000 s inactive_border_color",
"+      c #FFFFFF s inactive_hilight_2",
"@      c #D8D8D8 s inactive_color_2",
"#      c #B2B2B2 s inactive_shadow_2",
"o      c #9Ca5aA s buttons_color",
"                ",
"                ",
"                ",
"                ",
"                ",
"                ",
"+++++++++++++++.",
"+@@@@@@@@@@@@@#.",
"+@@@@oooooo@@@#.",
"+@@@@oooooo@@@#.",
"+@@@@o@@@@o@@@#.",
"+@@oooooo@o@@@#.",
"+@@oooooo@o@@@#.",
"+@@o@@@@ooo@@@#.",
"+@@o@@@@o@@@@@#.",
"+@@o@@@@o@@@@@#.",
"+@@oooooo@@@@@#.",
"+@@@@@@@@@@@@@#.",
"+##############.",
"................",
"                ",
"                ",
"                ",
"                "};

