/* XPM */
static char * close_active_xpm[] = {
"36 48 6 1",
"       c None",
".      c #000000 s active_border_color",
"+      c #FFFFFF s active_hilight_2",
"@      c #D8D8D8 s active_color_2",
"#      c #B2B2B2 s active_shadow_2",
"o      c #9Ca5aA s buttons_color",
"                                    ",
"                                    ",
"                                    ",
"                                    ",
"                                    ",
"                                    ",
"                                    ",
"                                    ",
"                                    ",
"                                    ",
"                                    ",
"                                    ",
"    ++++++++++++++++++++++++++++++..",
"    ++++++++++++++++++++++++++++++..",
"    ++@@@@@@@@@@@@@@@@@@@@@@@@@@##..",
"    ++@@@@@@@@@@@@@@@@@@@@@@@@@@##..",
"    ++@@@@@@@@@@@@@@@@@@@@@@@@@@##..",
"    ++@@@@@@@@@@@@@@@@@@@@@@@@@@##..",
"    ++@@@@@@oooo@@@@@@@@oooo@@@@##..",
"    ++@@@@@@oooo@@@@@@@@oooo@@@@##..",
"    ++@@@@@@@@oooo@@@@oooo@@@@@@##..",
"    ++@@@@@@@@oooo@@@@oooo@@@@@@##..",
"    ++@@@@@@@@@@oooooooo@@@@@@@@##..",
"    ++@@@@@@@@@@oooooooo@@@@@@@@##..",
"    ++@@@@@@@@@@@@oooo@@@@@@@@@@##..",
"    ++@@@@@@@@@@@@oooo@@@@@@@@@@##..",
"    ++@@@@@@@@@@oooooooo@@@@@@@@##..",
"    ++@@@@@@@@@@oooooooo@@@@@@@@##..",
"    ++@@@@@@@@oooo@@@@oooo@@@@@@##..",
"    ++@@@@@@@@oooo@@@@oooo@@@@@@##..",
"    ++@@@@@@oooo@@@@@@@@oooo@@@@##..",
"    ++@@@@@@oooo@@@@@@@@oooo@@@@##..",
"    ++@@@@@@@@@@@@@@@@@@@@@@@@@@##..",
"    ++@@@@@@@@@@@@@@@@@@@@@@@@@@##..",
"    ++@@@@@@@@@@@@@@@@@@@@@@@@@@##..",
"    ++@@@@@@@@@@@@@@@@@@@@@@@@@@##..",
"    ++############################..",
"    ++############################..",
"    ................................",
"    ................................",
"                                    ",
"                                    ",
"                                    ",
"                                    ",
"                                    ",
"                                    ",
"                                    ",
"                                    "};
