/* XPM */
static char * maximize_toggled_pressed_xpm[] = {
"32 48 6 1",
"       c None",
".      c #000000 s active_border_color",
"+      c #B2B2B2 s active_shadow_2",
"@      c #D8D8D8 s active_color_2",
"#      c #FFFFFF s active_hilight_2",
"o      c #000000 s buttons_color",
"                                ",
"                                ",
"                                ",
"                                ",
"                                ",
"                                ",
"                                ",
"                                ",
"                                ",
"                                ",
"                                ",
"                                ",
"................................",
"................................",
"..++@@@@@@@@@@@@@@@@@@@@@@@@@@##",
"..++@@@@@@@@@@@@@@@@@@@@@@@@@@##",
"..++@@@@@@@@@@@@@@@@@@@@@@@@@@##",
"..++@@@@@@@@@@@@@@@@@@@@@@@@@@##",
"..++@@@@@@@@oooooooooooo@@@@@@##",
"..++@@@@@@@@oooooooooooo@@@@@@##",
"..++@@@@@@@@oooooooooooo@@@@@@##",
"..++@@@@@@@@oooooooooooo@@@@@@##",
"..++@@@@@@@@oo@@@@@@@@oo@@@@@@##",
"..++@@@@@@@@oo@@@@@@@@oo@@@@@@##",
"..++@@@@oooooooooooo@@oo@@@@@@##",
"..++@@@@oooooooooooo@@oo@@@@@@##",
"..++@@@@oooooooooooo@@oo@@@@@@##",
"..++@@@@oooooooooooo@@oo@@@@@@##",
"..++@@@@oo@@@@@@@@oooooo@@@@@@##",
"..++@@@@oo@@@@@@@@oooooo@@@@@@##",
"..++@@@@oo@@@@@@@@oo@@@@@@@@@@##",
"..++@@@@oo@@@@@@@@oo@@@@@@@@@@##",
"..++@@@@oo@@@@@@@@oo@@@@@@@@@@##",
"..++@@@@oo@@@@@@@@oo@@@@@@@@@@##",
"..++@@@@oooooooooooo@@@@@@@@@@##",
"..++@@@@oooooooooooo@@@@@@@@@@##",
"..++@@@@@@@@@@@@@@@@@@@@@@@@@@##",
"..++@@@@@@@@@@@@@@@@@@@@@@@@@@##",
"..##############################",
"..##############################",
"                                ",
"                                ",
"                                ",
"                                ",
"                                ",
"                                ",
"                                ",
"                                "};
